<svg version="1.1" id="Layer_1" xmlns="http://www.w3.org/2000/svg" xmlns:xlink="http://www.w3.org/1999/xlink" x="0px" y="0px"
	 width="100%" viewBox="0 0 496 496" enable-background="new 0 0 496 496" xml:space="preserve">
<path fill="#000000" opacity="1.000000" stroke="none" 
	d="
M316.493591,96.514633 
	C323.904297,104.137512 329.320343,112.685104 333.634216,121.957603 
	C335.071106,125.046112 336.472137,127.391624 340.731903,125.906776 
	C343.705170,124.870384 345.237030,127.424210 346.084076,129.915344 
	C348.814209,137.944138 351.826904,145.906693 353.969482,154.093994 
	C355.203857,158.810883 357.036560,160.521973 361.878784,159.381790 
	C366.894806,158.200699 367.658264,159.047394 367.298004,164.362000 
	C367.013306,168.561401 366.170502,172.883911 363.830994,176.236115 
	C355.262268,188.514191 353.453979,203.277481 348.392853,216.825485 
	C346.545044,221.771820 344.384674,226.168533 340.577942,229.911957 
	C328.566223,241.723816 315.816162,252.663696 302.508850,262.973938 
	C301.196411,263.990814 299.877899,265.030609 298.729004,266.220764 
	C296.851685,268.165436 294.786621,270.576355 295.735260,273.206757 
	C296.718475,275.933044 299.859985,274.236145 302.020996,274.630676 
	C303.696655,274.936584 305.840271,274.084106 306.588440,276.714905 
	C305.135162,279.431396 302.503967,278.342407 300.399872,278.348114 
	C272.915314,278.422943 245.430450,278.384277 217.945694,278.406738 
	C213.624527,278.410248 209.302521,278.659637 204.983017,278.610504 
	C203.770523,278.596710 202.050705,278.459930 202.077301,276.588074 
	C202.104065,274.703125 203.735748,274.914246 205.017258,274.683807 
	C207.302460,274.272858 210.665375,275.881989 211.511444,272.616486 
	C212.412613,269.138397 209.752518,266.750610 207.237534,264.745422 
	C195.124695,255.087952 183.238510,245.191376 171.916580,234.584000 
	C165.051437,228.152161 159.673279,221.287201 157.724823,211.809662 
	C156.054947,203.687286 151.822998,196.258057 150.579086,187.966019 
	C150.268082,185.892899 148.732193,185.362015 147.127975,184.855026 
	C144.116211,183.903198 141.084198,183.015472 138.072693,182.062851 
	C134.745834,181.010422 134.030197,179.070663 135.825745,175.990646 
	C138.455276,171.480072 142.130829,168.253967 147.024460,166.530167 
	C149.854370,165.533325 151.150757,163.733749 151.761703,160.786743 
	C153.963638,150.165344 157.752258,140.028564 161.681610,129.946060 
	C162.845444,126.959747 164.762634,124.799744 168.078964,126.017891 
	C171.900650,127.421654 172.644730,125.006088 173.786438,122.482162 
	C185.372589,96.869240 205.067825,80.031044 231.888504,73.050850 
	C263.950195,64.706680 292.355072,73.145164 316.493591,96.514633 
M194.372116,152.537552 
	C195.608444,154.219727 196.844788,155.901901 198.800217,158.562485 
	C198.494644,154.311050 199.302002,150.731262 193.420792,151.560425 
	C190.384979,149.326782 189.979477,146.291626 191.348053,143.127258 
	C192.894394,139.551804 196.509750,139.361954 199.759552,138.776291 
	C201.034088,138.546585 202.686279,139.992996 203.551514,138.786819 
	C207.924561,132.690475 214.815521,129.107819 219.109604,122.964485 
	C219.904251,121.827614 219.671356,120.794785 219.053604,119.720207 
	C218.406448,118.594475 217.376785,117.833832 216.171951,118.282906 
	C209.014572,120.950592 201.469009,123.364410 197.279480,130.320938 
	C195.231293,133.721832 193.230026,135.232559 189.358109,134.448288 
	C186.155930,133.799713 184.125046,135.546677 183.551834,138.516357 
	C182.402756,144.469543 187.956863,151.457672 194.372116,152.537552 
M231.340790,221.921295 
	C229.398819,223.852936 230.824020,224.670578 232.473999,225.512192 
	C236.502563,227.567093 240.122131,230.150040 243.407120,233.313492 
	C246.850830,236.629776 259.364899,237.505371 262.746338,234.173859 
	C269.530121,227.490250 278.084839,224.127548 286.560150,220.857956 
	C294.655151,217.735077 299.946869,211.776398 305.267090,205.587753 
	C306.091064,204.629288 307.069244,203.523453 306.151031,201.971207 
	C304.162323,201.517517 303.246979,203.258728 301.987885,204.139359 
	C295.028961,209.006500 292.320251,207.592499 289.214355,199.833115 
	C285.666656,190.970032 288.790802,181.425674 285.101501,172.607300 
	C283.531494,168.854523 282.758789,166.992096 278.280060,168.342728 
	C271.650940,170.341843 265.532867,166.957428 263.023682,160.595291 
	C260.032379,153.010727 261.158966,146.021088 266.972931,140.370132 
	C272.216705,135.273422 267.935242,128.048126 271.603485,122.757141 
	C271.706238,122.608955 271.470123,122.055496 271.244720,121.875168 
	C266.204498,117.843437 268.109009,109.244484 259.408386,106.738525 
	C252.990479,104.890038 253.494888,102.849930 248.108627,107.781555 
	C245.453094,110.212967 242.729279,110.788704 239.422211,109.378738 
	C237.755676,108.668221 236.096252,106.640244 234.100403,108.903908 
	C232.153366,111.112221 231.446899,113.827347 232.671783,116.327965 
	C234.161804,119.369850 236.073776,122.314362 231.837540,124.213303 
	C228.920746,125.520798 227.351501,129.257919 223.896362,129.012543 
	C216.642273,128.497345 213.134644,133.936447 209.334946,138.274017 
	C206.176193,141.879944 207.869812,145.695663 212.538757,147.771805 
	C214.450043,148.621704 215.789612,150.060226 215.220612,152.012787 
	C213.714447,157.181274 217.079575,157.205521 220.547852,157.860657 
	C225.317078,158.761536 229.975357,160.298904 232.612564,164.889542 
	C234.463333,168.111191 236.888824,170.245834 240.620056,171.055191 
	C243.506454,171.681290 245.842651,173.284195 246.548859,176.467163 
	C247.361908,180.131714 242.225266,192.738266 238.765717,194.543900 
	C236.170319,195.898514 234.835648,197.965134 233.594757,200.352264 
	C232.295547,202.851608 231.329056,205.526245 229.344177,207.664948 
	C227.175125,210.002045 227.311035,212.411972 229.553192,214.736038 
	C231.325516,216.573105 232.975082,218.504318 231.340790,221.921295 
M296.953003,246.527939 
	C303.411804,237.855515 309.302765,228.672913 316.499054,220.663101 
	C322.898651,213.540039 324.552856,205.285889 325.745819,196.527267 
	C325.900452,195.391830 326.374390,194.115494 324.964752,193.449661 
	C321.270905,191.704956 319.673004,188.531006 319.422791,183.854752 
	C315.441589,188.974854 313.364014,193.803345 312.267242,199.078583 
	C311.690277,201.853775 311.308136,204.795547 309.392181,206.964966 
	C303.039337,214.158051 297.240845,222.038452 287.280334,224.872604 
	C284.260620,225.731812 281.396759,227.174927 278.510406,228.460388 
	C266.904755,233.629089 259.508484,241.960953 257.760071,255.005508 
	C256.666687,263.163086 258.422791,265.191956 266.564484,263.306091 
	C271.795807,262.094391 277.384125,260.311462 282.289856,262.287964 
	C290.281830,265.507904 295.735168,262.832611 301.583252,257.663422 
	C307.943726,252.041351 315.044617,247.264694 318.369507,238.982773 
	C319.121765,237.108963 320.438568,235.606537 321.508148,233.940308 
	C324.738403,228.908142 327.719360,223.712021 330.680237,218.513046 
	C331.676971,216.762802 331.613556,214.865784 329.680206,213.698135 
	C328.000702,212.683823 327.001892,213.827881 326.013153,215.142410 
	C318.915497,224.578766 311.775146,233.983063 304.622955,243.378250 
	C302.408325,246.287476 300.157654,249.171951 297.833679,251.993805 
	C297.074860,252.915207 295.913574,253.563736 294.763611,252.683533 
	C293.539795,251.746826 294.205139,250.576202 294.807831,249.568237 
	C295.318634,248.713989 295.946045,247.929459 296.953003,246.527939 
M270.804199,141.221054 
	C269.776306,142.737595 268.742279,144.250031 267.721649,145.771423 
	C264.502930,150.569229 264.369476,157.745117 267.779663,162.125092 
	C271.108368,166.400421 275.561218,165.848282 280.047577,164.261932 
	C283.052185,163.199509 285.758301,164.117813 286.795258,166.832718 
	C288.668091,171.736038 291.516144,177.136383 290.877655,181.917984 
	C290.001923,188.476318 291.761841,194.040741 293.328552,199.907944 
	C294.439636,204.068863 296.427063,204.738510 299.719757,201.887253 
	C305.036621,197.283188 308.241516,190.540970 309.269257,184.434021 
	C310.558289,176.774506 311.138550,169.888062 317.871429,164.803925 
	C320.469391,162.842133 320.617828,159.961334 317.051056,157.981125 
	C315.626770,157.190384 314.200317,156.108139 313.262115,154.807190 
	C311.888031,152.901871 309.534515,150.864731 312.087860,148.121277 
	C314.437225,149.087875 314.589233,151.436890 315.954498,152.867538 
	C318.195801,155.216187 319.855408,154.015274 321.261322,152.115768 
	C322.807831,150.026321 326.523468,147.356094 323.189209,145.182388 
	C319.696259,142.905197 317.525482,140.578796 316.272125,136.698471 
	C315.636963,134.731903 313.493164,133.472168 311.023865,133.645233 
	C309.147095,135.314972 309.308289,138.801315 306.473572,139.324402 
	C299.932526,140.531433 293.255737,141.553757 287.143738,137.814545 
	C282.112305,134.736404 274.929535,135.854980 270.804199,141.221054 
M192.122437,221.404327 
	C196.623566,227.384323 201.249176,233.275604 205.591110,239.369019 
	C210.011475,245.572510 214.962982,250.821182 222.500900,253.400253 
	C227.337006,255.054886 231.820572,257.736664 236.470016,259.941467 
	C238.892517,261.090210 241.403229,261.799561 244.123108,261.988495 
	C248.086548,262.263794 250.067154,260.968567 249.760483,256.648163 
	C249.071365,246.939819 244.975647,239.138794 237.200500,233.306519 
	C230.457855,228.248764 222.045776,226.403763 214.984528,222.135742 
	C205.713669,216.532181 197.399658,209.754318 195.538788,197.823212 
	C194.669830,192.251846 192.057022,187.261932 187.549179,183.082565 
	C188.397659,187.518829 187.194366,190.883438 183.318771,192.968414 
	C181.511734,193.940552 182.165375,195.452072 182.263412,196.908356 
	C182.867920,205.889481 184.891602,214.300247 192.122437,221.404327 
M218.945953,212.428818 
	C221.094528,215.343781 222.869843,218.758469 227.795959,219.110260 
	C226.330170,215.588287 222.716156,212.964096 224.395157,209.577316 
	C227.093307,204.134811 229.490448,197.630646 234.013657,194.247864 
	C239.095444,190.447372 240.064728,185.594559 242.140076,180.728195 
	C243.620239,177.257477 242.407669,175.315796 239.034393,174.365219 
	C235.762955,173.443344 232.950714,172.050003 230.921631,169.052444 
	C225.272614,160.707184 213.648682,157.673706 204.416733,161.865128 
	C204.132568,163.525116 204.249695,165.342850 203.517776,166.704041 
	C199.274612,174.595413 202.518188,180.402878 208.548523,185.390488 
	C211.786011,188.068176 213.497421,191.388885 214.516342,195.421448 
	C215.893097,200.870148 215.832474,206.681900 218.945953,212.428818 
M198.979614,167.966965 
	C199.424377,166.879471 200.125916,165.456039 198.986282,164.751907 
	C196.106766,162.972778 194.719116,160.238052 193.324326,157.379822 
	C192.723312,156.148193 191.435272,155.543228 190.042892,155.351944 
	C186.618332,154.881470 184.454941,152.916840 182.785110,149.926453 
	C180.797882,146.367676 179.044586,146.441788 176.584320,149.876572 
	C173.007233,154.870544 171.941833,160.431702 172.941040,166.450562 
	C173.720154,171.143784 176.443451,174.032257 181.129272,174.542053 
	C184.885269,174.950668 187.569229,176.839203 190.168732,179.313995 
	C195.322342,184.220413 198.404343,190.405807 199.641068,197.120117 
	C201.312363,206.193604 208.452438,210.788544 213.949173,216.785355 
	C214.504120,217.390793 215.529984,218.135956 216.910782,216.973724 
	C214.162125,211.927261 212.608276,206.347519 211.828842,200.608597 
	C211.054611,194.907974 208.760452,190.379807 204.367691,186.458435 
	C199.192352,181.838440 195.871704,176.116577 198.979614,167.966965 
M245.882339,82.633438 
	C251.162857,83.080406 256.786530,81.157875 261.657623,83.312317 
	C265.588135,85.050735 270.532379,87.493179 273.416382,86.198723 
	C280.533783,83.004189 284.516632,86.060379 289.040466,90.416939 
	C290.590027,91.909218 293.435120,92.119202 294.571716,89.538376 
	C295.721405,86.927887 294.082336,85.051285 291.594788,84.146797 
	C289.910248,83.534294 287.928070,83.556877 286.406586,82.708160 
	C273.158783,75.318146 259.052979,72.826218 244.109665,75.108162 
	C241.209641,75.551018 236.247803,74.571869 236.420410,78.491318 
	C236.599731,82.562889 241.694595,81.956856 245.882339,82.633438 
M323.822449,175.140533 
	C327.567932,173.956787 331.427399,172.603668 331.693848,167.946945 
	C332.017944,162.282700 330.522430,157.032715 326.896942,151.912781 
	C324.968781,153.912323 322.460541,154.829742 323.176239,157.117554 
	C325.052155,163.113876 321.467560,166.540909 317.698944,169.895279 
	C313.715576,173.440811 312.565155,177.671478 313.780853,183.488480 
	C317.176422,180.481567 319.314026,176.903671 323.822449,175.140533 
M198.250153,143.341125 
	C196.705017,143.296951 195.020615,143.319489 194.667297,145.193436 
	C194.270706,147.296906 196.125153,147.456787 197.535446,147.838470 
	C200.425308,148.620544 202.090179,150.385513 202.278397,153.459991 
	C202.371567,154.982224 202.558212,156.781357 204.624435,156.537506 
	C206.982315,156.259232 205.869431,154.362686 205.880478,152.989212 
	C205.919983,148.085907 200.304672,147.361282 198.250153,143.341125 
M277.995911,132.342545 
	C280.226715,130.699341 283.356842,129.045837 280.488251,125.903976 
	C279.231110,124.527084 277.262329,126.798363 275.592468,127.323242 
	C274.115753,127.787415 273.579010,129.071060 273.885040,130.487991 
	C274.271790,132.278503 275.700409,132.656982 277.995911,132.342545 
M328.132263,182.381287 
	C325.715515,182.348740 324.575867,183.879578 323.943665,185.916519 
	C323.563843,187.140427 324.047852,188.210342 324.972900,189.036911 
	C325.806091,189.781342 326.991272,190.034805 327.638947,189.169479 
	C329.112152,187.201218 331.675385,185.247040 328.132263,182.381287 
M256.314087,243.901566 
	C256.603760,242.723999 257.790833,241.195724 256.034760,240.531219 
	C254.244904,239.853912 252.177216,239.707809 250.657059,241.654419 
	C250.891418,243.795517 251.557831,245.703339 253.274490,247.022736 
	C255.075836,246.973892 255.486725,245.660446 256.314087,243.901566 
M178.987244,187.480911 
	C179.779739,188.811310 180.625336,190.124374 182.404694,188.842148 
	C183.788376,187.845108 184.050949,186.361435 183.393021,184.914642 
	C182.607056,183.186371 180.928101,182.630402 179.269928,183.197433 
	C177.113174,183.934952 178.472794,185.584808 178.987244,187.480911 
z"/>
</svg>